# xmcd CD database file
#
# Track frame offsets:
#	150
#	12133
#	29191
#	46177
#	58815
#	71843
#	85192
#	101184
#	115010
#	129076
#	141186
#	156110
#	176345
#
# Disc length: 2687 seconds
#
# Revision: 0
# Processed by: cddbd v1.5.2PL0 Copyright (c) Steve Scherf et al.
# Submitted via: jetAudio 7
#
DISCID=ad0a7d0d
DTITLE=Karlien Husselman - niemand nog soos jy
DYEAR=2005
DGENRE=afrikaans
TTITLE0=Rosie van die vrystaat
TTITLE1=Niemand nog soos jy
TTITLE2=Carolientjie soek 'n man
TTITLE3=Laat staan
TTITLE4=Mockingbird song
TTITLE5=Kanne kanne vol wyn
TTITLE6=Paddastoel song
TTITLE7=Ahoema shewelana
TTITLE8=Kom gee my nou jou handjie
TTITLE9=A thing called love
TTITLE10=Weskus song
TTITLE11=Afrikaanse Jodelkeurspel.Hy leer my om te jodel.Heidi
TTITLE12=Country Medley.Hae I told.Silver Threads.Maggie
EXTD=
EXTT0=
EXTT1=
EXTT2=
EXTT3=
EXTT4=
EXTT5=
EXTT6=
EXTT7=
EXTT8=
EXTT9=
EXTT10=
EXTT11=
EXTT12=
PLAYORDER=
